<?xml version="1.0" encoding="UTF-8" standalone="no"?>
<svg
   width="1315"
   height="783"
   xml:space="preserve"
   overflow="hidden"
   version="1.1"
   id="svg37"
   sodipodi:docname="lablogo.svg"
   inkscape:version="1.3.2 (091e20e, 2023-11-25)"
   inkscape:export-filename="lablogo.jpg"
   inkscape:export-xdpi="137.49409"
   inkscape:export-ydpi="137.49409"
   xmlns:inkscape="http://www.inkscape.org/namespaces/inkscape"
   xmlns:sodipodi="http://sodipodi.sourceforge.net/DTD/sodipodi-0.dtd"
   xmlns="http://www.w3.org/2000/svg"
   xmlns:svg="http://www.w3.org/2000/svg"><defs
     id="defs37" /><sodipodi:namedview
     id="namedview37"
     pagecolor="#ffffff"
     bordercolor="#000000"
     borderopacity="0.25"
     inkscape:showpageshadow="2"
     inkscape:pageopacity="0.0"
     inkscape:pagecheckerboard="0"
     inkscape:deskcolor="#d1d1d1"
     inkscape:zoom="1.1343709"
     inkscape:cx="711.84829"
     inkscape:cy="412.56346"
     inkscape:window-width="1456"
     inkscape:window-height="831"
     inkscape:window-x="2"
     inkscape:window-y="38"
     inkscape:window-maximized="0"
     inkscape:current-layer="svg37" /><g
     transform="matrix(0.26283294,0,0,0.26283294,-20.671304,-125.09141)"
     id="g37"
     inkscape:export-filename="cdalab.svg"
     inkscape:export-xdpi="300"
     inkscape:export-ydpi="300"><g
       id="g36"><g
         id="g7"><g
           id="g6"><g
             id="g5"><path
               d="m 2996.46,1701.11 c 16.64,0 30.13,-13.49 30.13,-30.13 0,-16.64 -13.49,-30.12 -30.13,-30.12 -16.63,0 -30.12,13.48 -30.12,30.12 0.1,16.6 13.53,30.03 30.12,30.13 z m 0,-45.19 c 8.32,0 15.07,6.74 15.07,15.06 0,8.32 -6.75,15.06 -15.07,15.06 -8.32,0 -15.06,-6.74 -15.06,-15.06 0.11,-8.27 6.79,-14.96 15.06,-15.06 z"
               stroke="#7f7f7f"
               stroke-width="20.6572"
               stroke-linecap="butt"
               stroke-linejoin="miter"
               stroke-miterlimit="4"
               stroke-opacity="1"
               fill="#7f7f7f"
               fill-rule="nonzero"
               fill-opacity="1"
               id="path1" /><path
               d="m 2906.09,1846.71 c 16.64,0 30.12,-13.49 30.12,-30.13 0,-16.63 -13.48,-30.12 -30.12,-30.12 -16.64,0 -30.13,13.49 -30.13,30.12 0,16.64 13.49,30.13 30.13,30.13 z m 0,-45.19 c 8.32,0 15.06,6.74 15.06,15.06 0,8.32 -6.74,15.07 -15.06,15.07 -8.32,0 -15.06,-6.75 -15.06,-15.07 0,-8.32 6.74,-15.06 15.06,-15.06 z"
               stroke="#7f7f7f"
               stroke-width="20.6572"
               stroke-linecap="butt"
               stroke-linejoin="miter"
               stroke-miterlimit="4"
               stroke-opacity="1"
               fill="#7f7f7f"
               fill-rule="nonzero"
               fill-opacity="1"
               id="path2" /><path
               d="m 2845.16,1849.58 -6.45,18.64 14.3,14.35 18.65,-5.74 c 4.94,2.89 10.27,5.06 15.82,6.46 l 8.59,17.93 h 20.08 l 7.89,-17.22 c 5.55,-1.39 10.88,-3.57 15.82,-6.45 l 18.64,6.45 14.31,-14.31 -5.72,-18.68 c 2.88,-4.93 5.05,-10.24 6.46,-15.78 l 17.92,-8.61 0.72,-21.52 -17.95,-8.57 c -1.4,-5.54 -3.57,-10.87 -6.46,-15.81 l 6.46,-18.65 -14.31,-14.35 -18.65,6.46 c -4.93,-2.88 -10.24,-5.05 -15.78,-6.46 l -8.6,-17.93 h -20.83 l -8.6,17.93 c -5.55,1.4 -10.87,3.58 -15.82,6.46 l -18.64,-6.46 -14.31,14.35 6.46,18.65 c -2.88,4.93 -5.06,10.24 -6.45,15.78 l -17.93,8.6 v 20.09 l 17.93,8.61 c 1.39,5.54 3.57,10.85 6.45,15.78 z m -9.32,-34.97 9.39,-4.52 6.38,-3.06 1.71,-6.87 c 1.06,-4.2 2.72,-8.22 4.92,-11.96 l 3.39,-5.93 -2.26,-6.46 -3.37,-9.74 1.01,-1.01 9.73,3.37 6.47,2.26 5.93,-3.39 c 3.73,-2.2 7.76,-3.86 11.96,-4.93 l 6.86,-1.71 3.07,-6.38 4.52,-9.39 h 1.83 l 4.52,9.39 3.07,6.38 6.86,1.71 c 4.2,1.07 8.23,2.73 11.96,4.93 l 5.93,3.39 6.46,-2.26 9.74,-3.37 1,1.01 -3.39,9.72 -2.25,6.47 3.38,5.93 c 2.2,3.73 3.86,7.76 4.93,11.96 l 1.71,6.87 6.38,3.06 9.04,4.35 -0.09,2.57 -9.7,4.65 -6.38,3.07 -1.71,6.86 c -1.06,4.2 -2.72,8.23 -4.92,11.96 l -3.24,5.66 1.92,6.24 3.07,9.98 -1.26,1.27 -9.73,-3.38 -6.46,-2.26 -5.95,3.4 c -3.73,2.2 -7.75,3.86 -11.95,4.92 l -7.02,1.75 -3.02,6.59 -3.79,8.45 h -0.94 l -4.52,-9.39 -3.06,-6.38 -6.86,-1.71 c -4.2,-1.07 -8.23,-2.73 -11.96,-4.93 l -5.67,-3.24 -6.23,1.92 -9.98,3.08 -1.27,-1.27 3.39,-9.71 2.26,-6.47 -3.39,-5.93 c -2.2,-3.73 -3.86,-7.76 -4.92,-11.96 l -1.71,-6.87 -6.38,-3.06 -9.38,-4.52 z"
               stroke="#7f7f7f"
               stroke-width="20.6572"
               stroke-linecap="butt"
               stroke-linejoin="miter"
               stroke-miterlimit="4"
               stroke-opacity="1"
               fill="#7f7f7f"
               fill-rule="nonzero"
               fill-opacity="1"
               id="path3" /><path
               d="m 2934.8,1704.69 -6.46,18.65 14.31,14.35 18.65,-6.46 c 4.93,2.88 10.24,5.05 15.78,6.46 l 8.6,17.93 h 20.08 l 8.6,-17.22 c 5.55,-1.4 10.88,-3.57 15.82,-6.45 l 18.64,6.45 14.35,-14.35 -6.46,-18.64 c 3.11,-4.91 5.52,-10.22 7.17,-15.78 l 17.93,-8.61 v -21.52 l -17.93,-8.6 c -1.4,-5.54 -3.57,-10.85 -6.45,-15.78 l 6.45,-18.66 -14.31,-14.31 -18.64,6.46 c -4.93,-2.89 -10.25,-5.06 -15.78,-6.46 l -8.64,-17.24 h -20.08 l -8.61,17.93 c -5.55,1.39 -10.87,3.57 -15.81,6.45 l -18.64,-6.45 -14.31,14.35 5.74,18.64 c -2.88,4.93 -5.06,10.25 -6.46,15.78 l -17.92,8.61 v 20.08 l 17.92,8.61 c 1.41,5.54 3.58,10.85 6.46,15.78 z m -9.32,-35 9.38,-4.52 6.38,-3.05 1.71,-6.87 c 1.07,-4.2 2.73,-8.23 4.93,-11.96 l 3.23,-5.66 -1.91,-6.24 -3.08,-9.99 1.27,-1.25 9.73,3.36 6.46,2.26 5.94,-3.39 c 3.73,-2.2 7.76,-3.86 11.96,-4.92 l 6.86,-1.72 3.06,-6.38 4.52,-9.38 h 1.3 l 4.44,8.88 3.09,6.17 6.71,1.68 c 4.2,1.06 8.23,2.72 11.96,4.92 l 5.94,3.4 6.46,-2.26 9.74,-3.38 1,1.01 -3.4,9.79 -2.26,6.46 3.39,5.94 c 2.2,3.73 3.86,7.76 4.92,11.96 l 1.71,6.86 6.38,3.06 9.38,4.52 v 2.53 l -9.38,4.51 -6.38,3.06 -1.71,6.87 c -1.35,4.21 -3.25,8.23 -5.64,11.96 l -3.39,5.93 2.26,6.47 3.37,9.73 -1.01,1.01 -9.73,-3.36 -6.46,-2.26 -5.95,3.39 c -3.72,2.2 -7.75,3.86 -11.95,4.92 l -6.72,1.68 -3.1,6.2 -4.44,8.89 h -1.29 l -4.52,-9.39 -3.06,-6.38 -6.87,-1.72 c -4.2,-1.06 -8.22,-2.72 -11.95,-4.92 l -5.94,-3.39 -6.46,2.26 -9.74,3.37 -1,-1.01 3.37,-9.74 2.26,-6.46 -3.39,-5.94 c -2.2,-3.73 -3.86,-7.76 -4.93,-11.95 l -1.71,-6.87 -6.38,-3.06 -9.38,-4.52 z"
               stroke="#7f7f7f"
               stroke-width="20.6572"
               stroke-linecap="butt"
               stroke-linejoin="miter"
               stroke-miterlimit="4"
               stroke-opacity="1"
               fill="#7f7f7f"
               fill-rule="nonzero"
               fill-opacity="1"
               id="path4" /><path
               d="m 2838.31,1946.53 v 190.6 h 237.98 v -90.38 h 36.91 c 23.75,-0.04 46.51,-9.52 63.26,-26.36 16.52,-17.2 25.7,-40.16 25.61,-64.01 v -45.19 h 33.13 c 19.58,-2.26 36.91,-24.85 18.83,-52.72 l -51.96,-90.37 v -3.77 c 4.89,-124.99 -92.47,-230.28 -217.46,-235.17 -124.99,-4.89 -230.28,92.47 -235.17,217.46 -0.23,5.9 -0.23,11.81 0,17.71 -0.26,71.24 32.57,138.55 88.87,182.2 z m 29.49,-372.72 c 100.39,-59.64 230.12,-26.59 289.75,73.8 20.81,35.04 31.05,75.35 29.49,116.07 v 8.33 l 2,3.49 51.97,90.37 0.2,0.35 0.22,0.34 c 4.89,5.9 6.34,13.93 3.81,21.17 -2.13,4.37 -6.23,7.45 -11.02,8.28 H 3187 v 60.25 c 0.08,19.87 -7.51,39 -21.2,53.39 -13.89,14.08 -32.83,22.01 -52.6,22.02 h -51.97 v 90.37 h -207.86 v -182.89 l -5.85,-4.52 c -52.73,-40.75 -83.43,-103.77 -83.02,-170.4 v -0.28 -0.27 c -3.06,-77.46 36.61,-150.36 103.31,-189.87 z"
               stroke="#7f7f7f"
               stroke-width="20.6572"
               stroke-linecap="butt"
               stroke-linejoin="miter"
               stroke-miterlimit="4"
               stroke-opacity="1"
               fill="#7f7f7f"
               fill-rule="nonzero"
               fill-opacity="1"
               id="path5" /></g></g></g><path
         d="m 2364.69,1882 h -109.38 c -10.11,0 -18.31,8.28 -18.31,18.5 0,10.22 8.2,18.5 18.31,18.5 h 109.38 c 10.11,0 18.31,-8.28 18.31,-18.5 0,-10.22 -8.2,-18.5 -18.31,-18.5 z"
         fill="#7f7f7f"
         fill-rule="evenodd"
         fill-opacity="1"
         id="path7" /><path
         d="m 2310,1981 c 20.94,0 38.36,-16.11 40,-37 h -80 c 1.64,20.89 19.06,37 40,37 z"
         fill="#7f7f7f"
         fill-rule="evenodd"
         fill-opacity="1"
         id="path8" /><path
         d="m 2469,1688.55 v -5.49 c -1.59,-86.79 -72.13,-156.48 -158.99,-157.06 -86.86,0.58 -157.42,70.27 -159.01,157.06 v 5.49 c 0.59,18.83 4.34,37.42 11.07,55 6.45,16.6 15.81,31.92 27.64,45.23 14.55,15.9 30.51,46.75 37.24,60.44 2.06,4.15 6.3,6.78 10.95,6.78 h 144.2 c 4.65,0 8.89,-2.63 10.95,-6.78 6.73,-13.69 22.69,-44.54 37.24,-60.44 11.83,-13.31 21.19,-28.63 27.64,-45.23 6.73,-17.58 10.47,-36.17 11.07,-55 z m -36.69,-0.63 c -0.55,14.65 -3.51,29.1 -8.76,42.79 -4.85,12.34 -11.85,23.71 -20.67,33.61 -14.02,16.89 -26.02,35.34 -35.78,55 h -114.22 c -9.75,-19.66 -21.76,-38.12 -35.78,-55 -8.82,-9.89 -15.82,-21.27 -20.66,-33.61 -5.25,-13.68 -8.2,-28.14 -8.75,-42.78 v -4.58 c 1.24,-66.73 55.52,-120.3 122.31,-120.68 66.79,0.38 121.08,53.95 122.3,120.69 z"
         fill="#ffff00"
         fill-rule="evenodd"
         fill-opacity="1"
         id="path9" /><path
         d="m 2311.5,1501 c 6.9,0 12.5,-5.7 12.5,-12.73 v -44.54 c 0,-7.03 -5.6,-12.73 -12.5,-12.73 -6.9,0 -12.5,5.7 -12.5,12.73 v 44.54 c 0,7.03 5.6,12.73 12.5,12.73 z"
         fill="#ffff00"
         fill-rule="evenodd"
         fill-opacity="1"
         id="path10" /><path
         d="m 2160.11,1557.11 c 4.89,5.06 12.95,5.2 18,0.32 5.06,-4.89 5.2,-12.95 0.32,-18.01 -0.11,-0.1 -0.21,-0.21 -0.32,-0.31 l -31.53,-31.54 c -5.06,-4.88 -13.12,-4.74 -18.01,0.32 -4.76,4.93 -4.76,12.75 0,17.69 z"
         fill="#ffff00"
         fill-rule="evenodd"
         fill-opacity="1"
         id="path11" /><path
         d="m 2453.8,1563 c 3.4,0 6.66,-1.35 9.06,-3.75 l 31.72,-31.72 c 4.81,-5.19 4.51,-13.3 -0.68,-18.11 -4.92,-4.56 -12.53,-4.56 -17.45,0.01 l -31.7,31.7 c -5,5 -5,13.11 0.01,18.12 2.4,2.4 5.66,3.75 9.06,3.75 z"
         fill="#ffff00"
         fill-rule="evenodd"
         fill-opacity="1"
         id="path12" /><path
         d="m 2113.27,1670 h -44.54 c -7.03,0 -12.73,5.6 -12.73,12.5 0,6.9 5.7,12.5 12.73,12.5 h 44.54 c 7.03,0 12.73,-5.6 12.73,-12.5 0,-6.9 -5.7,-12.5 -12.73,-12.5 z"
         fill="#ffff00"
         fill-rule="evenodd"
         fill-opacity="1"
         id="path13" /><path
         d="m 2160.32,1807.85 -31.24,31.24 c -5.13,4.71 -5.47,12.7 -0.75,17.83 4.72,5.13 12.7,5.47 17.84,0.75 0.25,-0.23 0.5,-0.48 0.73,-0.74 l 31.25,-31.23 c 5.01,-4.84 5.15,-12.83 0.31,-17.85 -4.85,-5.01 -12.84,-5.15 -17.85,-0.31 -0.11,0.1 -0.21,0.21 -0.31,0.31 z"
         fill="#ffff00"
         fill-rule="evenodd"
         fill-opacity="1"
         id="path14" /><path
         d="m 2463,1805.05 c -4.78,-5.13 -12.81,-5.43 -17.95,-0.65 -5.13,4.77 -5.43,12.81 -0.65,17.95 0.21,0.23 0.43,0.45 0.66,0.66 l 31.42,31.42 c 5.05,4.88 13.08,4.74 17.96,-0.31 4.75,-4.92 4.75,-12.72 0,-17.64 z"
         fill="#ffff00"
         fill-rule="evenodd"
         fill-opacity="1"
         id="path15" /><path
         d="m 2551.27,1669 h -44.54 c -7.03,0 -12.73,5.82 -12.73,13 0,7.18 5.7,13 12.73,13 h 44.54 c 7.03,0 12.73,-5.82 12.73,-13 0,-7.18 -5.7,-13 -12.73,-13 z"
         fill="#ffff00"
         fill-rule="evenodd"
         fill-opacity="1"
         id="path16" /><path
         d="m 2789,1755 c 0,-105.49 81.71,-191 182.5,-191 100.79,0 182.5,85.51 182.5,191 0,105.49 -81.71,191 -182.5,191 -100.79,0 -182.5,-85.51 -182.5,-191 z"
         fill="#ffffff"
         fill-rule="evenodd"
         fill-opacity="1"
         id="path17" /><g
         id="g20"><g
           id="g19"><g
             id="g18"><path
               d="m 2311,1724.5 c -17.33,0 -31.5,-14.17 -31.5,-31.5 0,-17.32 14.17,-31.5 31.5,-31.5 17.32,0 31.5,14.18 31.5,31.5 0,17.33 -14.18,31.5 -31.5,31.5 z m 70.87,-51.19 c -1.57,-5.77 -3.93,-11.28 -6.82,-16.27 l 6.56,-19.69 -14.96,-14.96 -19.69,6.56 c -5.25,-2.89 -10.76,-5.25 -16.54,-6.82 l -8.92,-18.38 h -21 l -9.19,18.38 c -5.77,1.57 -11.29,3.93 -16.27,6.82 l -19.69,-6.56 -14.96,14.96 6.56,19.69 c -2.89,5.25 -5.25,10.76 -6.83,16.54 l -18.37,8.92 v 21 l 18.37,9.19 c 1.58,5.77 3.94,11.29 6.83,16.27 l -6.56,19.69 14.96,14.96 19.69,-6.56 c 5.25,2.89 10.76,5.25 16.53,6.83 l 9.19,18.37 h 21 l 9.19,-18.37 c 5.77,-1.58 11.29,-3.94 16.27,-6.83 l 19.69,6.56 14.96,-14.96 -6.56,-19.69 c 2.89,-5.25 5.25,-10.76 6.83,-16.53 l 18.37,-9.19 v -21 z"
               fill="#00ff94"
               fill-rule="nonzero"
               fill-opacity="1"
               id="path18" /></g></g></g><g
         id="g23"><g
           id="g22"><g
             id="g21"><path
               d="m 2890,1837.5 c -17.32,0 -31.5,-14.18 -31.5,-31.5 0,-17.33 14.18,-31.5 31.5,-31.5 17.32,0 31.5,14.17 31.5,31.5 0,17.32 -14.18,31.5 -31.5,31.5 z m 70.88,-51.19 c -1.58,-5.77 -3.94,-11.29 -6.83,-16.27 l 6.56,-19.69 -14.96,-14.96 -19.69,6.56 c -5.25,-2.89 -10.76,-5.25 -16.53,-6.83 l -8.93,-18.37 h -21 l -9.19,18.37 c -5.77,1.58 -11.29,3.94 -16.27,6.83 l -19.69,-6.56 -14.96,14.96 6.56,19.69 c -2.89,5.25 -5.25,10.76 -6.83,16.53 l -18.37,8.93 v 21 l 18.37,9.19 c 1.58,5.77 3.94,11.28 6.83,16.27 l -6.56,19.69 14.96,14.96 19.69,-6.56 c 5.25,2.89 10.76,5.25 16.53,6.82 l 9.19,18.38 h 21 l 9.19,-18.38 c 5.78,-1.57 11.29,-3.93 16.28,-6.82 l 19.68,6.56 14.97,-14.96 -6.57,-19.69 c 2.89,-5.25 5.25,-10.76 6.83,-16.54 l 18.37,-9.18 v -21 z"
               fill="#084b2b"
               fill-rule="nonzero"
               fill-opacity="1"
               id="path20" /></g></g></g><g
         id="g26"><g
           id="g25"><g
             id="g24"><path
               d="m 126,157.5 c -17.325,0 -31.5,-14.175 -31.5,-31.5 0,-17.325 14.175,-31.5 31.5,-31.5 17.325,0 31.5,14.175 31.5,31.5 0,17.325 -14.175,31.5 -31.5,31.5 z m 70.875,-51.188 C 195.3,100.537 192.937,95.025 190.05,90.0375 L 196.612,70.35 181.65,55.3875 161.962,61.95 C 156.712,59.0625 151.2,56.7 145.425,55.125 L 136.5,36.75 h -21 l -9.188,18.375 C 100.537,56.7 95.025,59.0625 90.0375,61.95 L 70.35,55.3875 55.3875,70.35 61.95,90.0375 C 59.0625,95.2875 56.7,100.8 55.125,106.575 L 36.75,115.5 v 21 l 18.375,9.187 c 1.575,5.775 3.9375,11.288 6.825,16.275 L 55.3875,181.65 70.35,196.612 90.0375,190.05 c 5.25,2.887 10.7625,5.25 16.5375,6.825 l 9.187,18.375 h 21 l 9.188,-18.375 c 5.775,-1.575 11.287,-3.938 16.275,-6.825 l 19.687,6.562 14.963,-14.962 -6.563,-19.688 c 2.888,-5.25 5.25,-10.762 6.825,-16.537 l 18.375,-9.188 v -21 z"
               fill="#057a48"
               fill-rule="nonzero"
               fill-opacity="1"
               transform="translate(2613,1585)"
               id="path23" /></g></g></g><g
         id="g29"><g
           id="g28"><g
             id="g27"><path
               d="m 126,157.5 c -17.325,0 -31.5,-14.175 -31.5,-31.5 0,-17.325 14.175,-31.5 31.5,-31.5 17.325,0 31.5,14.175 31.5,31.5 0,17.325 -14.175,31.5 -31.5,31.5 z m 70.875,-51.188 C 195.3,100.537 192.937,95.025 190.05,90.0375 L 196.612,70.35 181.65,55.3875 161.962,61.95 C 156.712,59.0625 151.2,56.7 145.425,55.125 L 136.5,36.75 h -21 l -9.188,18.375 C 100.537,56.7 95.025,59.0625 90.0375,61.95 L 70.35,55.3875 55.3875,70.35 61.95,90.0375 C 59.0625,95.2875 56.7,100.8 55.125,106.575 L 36.75,115.5 v 21 l 18.375,9.187 c 1.575,5.775 3.9375,11.288 6.825,16.275 L 55.3875,181.65 70.35,196.612 90.0375,190.05 c 5.25,2.887 10.7625,5.25 16.5375,6.825 l 9.187,18.375 h 21 l 9.188,-18.375 c 5.775,-1.575 11.287,-3.938 16.275,-6.825 l 19.687,6.562 14.963,-14.962 -6.563,-19.688 c 2.888,-5.25 5.25,-10.762 6.825,-16.537 l 18.375,-9.188 v -21 z"
               fill="#009051"
               fill-rule="nonzero"
               fill-opacity="1"
               transform="matrix(1,0,0,1.00397,2517,1434)"
               id="path26" /></g></g></g><g
         id="g32"><g
           id="g31"><g
             id="g30"><path
               d="m 2489,1685.5 c -17.32,0 -31.5,-14.18 -31.5,-31.5 0,-17.32 14.18,-31.5 31.5,-31.5 17.32,0 31.5,14.18 31.5,31.5 0,17.32 -14.18,31.5 -31.5,31.5 z m 70.88,-51.19 c -1.58,-5.77 -3.94,-11.28 -6.83,-16.27 l 6.56,-19.69 -14.96,-14.96 -19.69,6.56 c -5.25,-2.89 -10.76,-5.25 -16.53,-6.83 l -8.93,-18.37 h -21 l -9.19,18.37 c -5.77,1.58 -11.29,3.94 -16.27,6.83 l -19.69,-6.56 -14.96,14.96 6.56,19.69 c -2.89,5.25 -5.25,10.76 -6.83,16.53 l -18.37,8.93 v 21 l 18.37,9.19 c 1.58,5.77 3.94,11.28 6.83,16.27 l -6.56,19.69 14.96,14.96 19.69,-6.56 c 5.25,2.89 10.76,5.25 16.53,6.83 l 9.19,18.37 h 21 l 9.19,-18.37 c 5.78,-1.58 11.29,-3.94 16.28,-6.83 l 19.68,6.56 14.97,-14.96 -6.57,-19.69 c 2.89,-5.25 5.25,-10.76 6.83,-16.53 l 18.37,-9.19 v -21 z"
               fill="#00ce79"
               fill-rule="nonzero"
               fill-opacity="1"
               id="path29" /></g></g></g><g
         id="g35"><g
           id="g34"><g
             id="g33"><path
               d="m 2986,1685.5 c -17.32,0 -31.5,-14.18 -31.5,-31.5 0,-17.32 14.18,-31.5 31.5,-31.5 17.32,0 31.5,14.18 31.5,31.5 0,17.32 -14.18,31.5 -31.5,31.5 z m 70.88,-51.19 c -1.58,-5.77 -3.94,-11.28 -6.83,-16.27 l 6.56,-19.69 -14.96,-14.96 -19.69,6.56 c -5.25,-2.89 -10.76,-5.25 -16.53,-6.83 l -8.93,-18.37 h -21 l -9.19,18.37 c -5.77,1.58 -11.29,3.94 -16.27,6.83 l -19.69,-6.56 -14.96,14.96 6.56,19.69 c -2.89,5.25 -5.25,10.76 -6.83,16.53 l -18.37,8.93 v 21 l 18.37,9.19 c 1.58,5.77 3.94,11.28 6.83,16.27 l -6.56,19.69 14.96,14.96 19.69,-6.56 c 5.25,2.89 10.76,5.25 16.53,6.83 l 9.19,18.37 h 21 l 9.19,-18.37 c 5.78,-1.58 11.29,-3.94 16.28,-6.83 l 19.68,6.56 14.97,-14.96 -6.57,-19.69 c 2.89,-5.25 5.25,-10.76 6.83,-16.53 l 18.37,-9.19 v -21 z"
               fill="#000000"
               fill-rule="nonzero"
               fill-opacity="1"
               id="path32" /></g></g></g></g></g><g
     inkscape:groupmode="layer"
     id="layer1"
     inkscape:label="ind" /></svg>
