<svg width="1315" height="783" xmlns="http://www.w3.org/2000/svg" xmlns:xlink="http://www.w3.org/1999/xlink" xml:space="preserve" overflow="hidden"><g transform="translate(-2053 -1430)"><g><g><g><g><path d="M2996.46 1701.11C3013.1 1701.11 3026.59 1687.62 3026.59 1670.98 3026.59 1654.34 3013.1 1640.86 2996.46 1640.86 2979.83 1640.86 2966.34 1654.34 2966.34 1670.98 2966.44 1687.58 2979.87 1701.01 2996.46 1701.11ZM2996.46 1655.92C3004.78 1655.92 3011.53 1662.66 3011.53 1670.98 3011.53 1679.3 3004.78 1686.04 2996.46 1686.04 2988.14 1686.04 2981.4 1679.3 2981.4 1670.98 2981.51 1662.71 2988.19 1656.02 2996.46 1655.92Z" stroke="#7F7F7F" stroke-width="20.6572" stroke-linecap="butt" stroke-linejoin="miter" stroke-miterlimit="4" stroke-opacity="1" fill="#7F7F7F" fill-rule="nonzero" fill-opacity="1"/><path d="M2906.09 1846.71C2922.73 1846.71 2936.21 1833.22 2936.21 1816.58 2936.21 1799.95 2922.73 1786.46 2906.09 1786.46 2889.45 1786.46 2875.96 1799.95 2875.96 1816.58 2875.96 1833.22 2889.45 1846.71 2906.09 1846.71ZM2906.09 1801.52C2914.41 1801.52 2921.15 1808.26 2921.15 1816.58 2921.15 1824.9 2914.41 1831.65 2906.09 1831.65 2897.77 1831.65 2891.03 1824.9 2891.03 1816.58 2891.03 1808.26 2897.77 1801.52 2906.09 1801.52Z" stroke="#7F7F7F" stroke-width="20.6572" stroke-linecap="butt" stroke-linejoin="miter" stroke-miterlimit="4" stroke-opacity="1" fill="#7F7F7F" fill-rule="nonzero" fill-opacity="1"/><path d="M2845.16 1849.58 2838.71 1868.22 2853.01 1882.57 2871.66 1876.83C2876.6 1879.72 2881.93 1881.89 2887.48 1883.29L2896.07 1901.22 2916.15 1901.22 2924.04 1884C2929.59 1882.61 2934.92 1880.43 2939.86 1877.55L2958.5 1884 2972.81 1869.69 2967.09 1851.01C2969.97 1846.08 2972.14 1840.77 2973.55 1835.23L2991.47 1826.62 2992.19 1805.1 2974.24 1796.53C2972.84 1790.99 2970.67 1785.66 2967.78 1780.72L2974.24 1762.07 2959.93 1747.72 2941.28 1754.18C2936.35 1751.3 2931.04 1749.13 2925.5 1747.72L2916.9 1729.79 2896.07 1729.79 2887.47 1747.72C2881.92 1749.12 2876.6 1751.3 2871.65 1754.18L2853.01 1747.72 2838.7 1762.07 2845.16 1780.72C2842.28 1785.65 2840.1 1790.96 2838.71 1796.5L2820.78 1805.1 2820.78 1825.19 2838.71 1833.8C2840.1 1839.34 2842.28 1844.65 2845.16 1849.58ZM2835.84 1814.61 2845.23 1810.09 2851.61 1807.03 2853.32 1800.16C2854.38 1795.96 2856.04 1791.94 2858.24 1788.2L2861.63 1782.27 2859.37 1775.81 2856 1766.07 2857.01 1765.06 2866.74 1768.43 2873.21 1770.69 2879.14 1767.3C2882.87 1765.1 2886.9 1763.44 2891.1 1762.37L2897.96 1760.66 2901.03 1754.28 2905.55 1744.89 2907.38 1744.89 2911.9 1754.28 2914.97 1760.66 2921.83 1762.37C2926.03 1763.44 2930.06 1765.1 2933.79 1767.3L2939.72 1770.69 2946.18 1768.43 2955.92 1765.06 2956.92 1766.07 2953.53 1775.79 2951.28 1782.26 2954.66 1788.19C2956.86 1791.92 2958.52 1795.95 2959.59 1800.15L2961.3 1807.02 2967.68 1810.08 2976.72 1814.43 2976.63 1817 2966.93 1821.65 2960.55 1824.72 2958.84 1831.58C2957.78 1835.78 2956.12 1839.81 2953.92 1843.54L2950.68 1849.2 2952.6 1855.44 2955.67 1865.42 2954.41 1866.69 2944.68 1863.31 2938.22 1861.05 2932.27 1864.45C2928.54 1866.65 2924.52 1868.31 2920.32 1869.37L2913.3 1871.12 2910.28 1877.71 2906.49 1886.16 2905.55 1886.16 2901.03 1876.77 2897.97 1870.39 2891.11 1868.68C2886.91 1867.61 2882.88 1865.95 2879.15 1863.75L2873.48 1860.51 2867.25 1862.43 2857.27 1865.51 2856 1864.24 2859.39 1854.53 2861.65 1848.06 2858.26 1842.13C2856.06 1838.4 2854.4 1834.37 2853.34 1830.17L2851.63 1823.3 2845.25 1820.24 2835.87 1815.72Z" stroke="#7F7F7F" stroke-width="20.6572" stroke-linecap="butt" stroke-linejoin="miter" stroke-miterlimit="4" stroke-opacity="1" fill="#7F7F7F" fill-rule="nonzero" fill-opacity="1"/><path d="M2934.8 1704.69 2928.34 1723.34 2942.65 1737.69 2961.3 1731.23C2966.23 1734.11 2971.54 1736.28 2977.08 1737.69L2985.68 1755.62 3005.76 1755.62 3014.36 1738.4C3019.91 1737 3025.24 1734.83 3030.18 1731.95L3048.82 1738.4 3063.17 1724.05 3056.71 1705.41C3059.82 1700.5 3062.23 1695.19 3063.88 1689.63L3081.81 1681.02 3081.81 1659.5 3063.88 1650.9C3062.48 1645.36 3060.31 1640.05 3057.43 1635.12L3063.88 1616.46 3049.57 1602.15 3030.93 1608.61C3026 1605.72 3020.68 1603.55 3015.15 1602.15L3006.51 1584.91 2986.43 1584.91 2977.82 1602.84C2972.27 1604.23 2966.95 1606.41 2962.01 1609.29L2943.37 1602.84 2929.06 1617.19 2934.8 1635.83C2931.92 1640.76 2929.74 1646.08 2928.34 1651.61L2910.42 1660.22 2910.42 1680.3 2928.34 1688.91C2929.75 1694.45 2931.92 1699.76 2934.8 1704.69ZM2925.48 1669.69 2934.86 1665.17 2941.24 1662.12 2942.95 1655.25C2944.02 1651.05 2945.68 1647.02 2947.88 1643.29L2951.11 1637.63 2949.2 1631.39 2946.12 1621.4 2947.39 1620.15 2957.12 1623.51 2963.58 1625.77 2969.52 1622.38C2973.25 1620.18 2977.28 1618.52 2981.48 1617.46L2988.34 1615.74 2991.4 1609.36 2995.92 1599.98 2997.22 1599.98 3001.66 1608.86 3004.75 1615.03 3011.46 1616.71C3015.66 1617.77 3019.69 1619.43 3023.42 1621.63L3029.36 1625.03 3035.82 1622.77 3045.56 1619.39 3046.56 1620.4 3043.16 1630.19 3040.9 1636.65 3044.29 1642.59C3046.49 1646.32 3048.15 1650.35 3049.21 1654.55L3050.92 1661.41 3057.3 1664.47 3066.68 1668.99 3066.68 1671.52 3057.3 1676.03 3050.92 1679.09 3049.21 1685.96C3047.86 1690.17 3045.96 1694.19 3043.57 1697.92L3040.18 1703.85 3042.44 1710.32 3045.81 1720.05 3044.8 1721.06 3035.07 1717.7 3028.61 1715.44 3022.66 1718.83C3018.94 1721.03 3014.91 1722.69 3010.71 1723.75L3003.99 1725.43 3000.89 1731.63 2996.45 1740.52 2995.16 1740.52 2990.64 1731.13 2987.58 1724.75 2980.71 1723.03C2976.51 1721.97 2972.49 1720.31 2968.76 1718.11L2962.82 1714.72 2956.36 1716.98 2946.62 1720.35 2945.62 1719.34 2948.99 1709.6 2951.25 1703.14 2947.86 1697.2C2945.66 1693.47 2944 1689.44 2942.93 1685.25L2941.22 1678.38 2934.84 1675.32 2925.46 1670.8Z" stroke="#7F7F7F" stroke-width="20.6572" stroke-linecap="butt" stroke-linejoin="miter" stroke-miterlimit="4" stroke-opacity="1" fill="#7F7F7F" fill-rule="nonzero" fill-opacity="1"/><path d="M2838.31 1946.53 2838.31 2137.13 3076.29 2137.13 3076.29 2046.75 3113.2 2046.75C3136.95 2046.71 3159.71 2037.23 3176.46 2020.39 3192.98 2003.19 3202.16 1980.23 3202.07 1956.38L3202.07 1911.19 3235.2 1911.19C3254.78 1908.93 3272.11 1886.34 3254.03 1858.47L3202.07 1768.1 3202.07 1764.33C3206.96 1639.34 3109.6 1534.05 2984.61 1529.16 2859.62 1524.27 2754.33 1621.63 2749.44 1746.62 2749.21 1752.52 2749.21 1758.43 2749.44 1764.33 2749.18 1835.57 2782.01 1902.88 2838.31 1946.53ZM2867.8 1573.81C2968.19 1514.17 3097.92 1547.22 3157.55 1647.61 3178.36 1682.65 3188.6 1722.96 3187.04 1763.68L3187.04 1772.01 3189.04 1775.5 3241.01 1865.87 3241.21 1866.22 3241.43 1866.56C3246.32 1872.46 3247.77 1880.49 3245.24 1887.73 3243.11 1892.1 3239.01 1895.18 3234.22 1896.01L3187 1896.01 3187 1956.26C3187.08 1976.13 3179.49 1995.26 3165.8 2009.65 3151.91 2023.73 3132.97 2031.66 3113.2 2031.67L3061.23 2031.67 3061.23 2122.04 2853.37 2122.04 2853.37 1939.15 2847.52 1934.63C2794.79 1893.88 2764.09 1830.86 2764.5 1764.23L2764.5 1763.95 2764.5 1763.68C2761.44 1686.22 2801.11 1613.32 2867.81 1573.81Z" stroke="#7F7F7F" stroke-width="20.6572" stroke-linecap="butt" stroke-linejoin="miter" stroke-miterlimit="4" stroke-opacity="1" fill="#7F7F7F" fill-rule="nonzero" fill-opacity="1"/></g></g></g><path d="M2364.69 1882 2255.31 1882C2245.2 1882 2237 1890.28 2237 1900.5 2237 1910.72 2245.2 1919 2255.31 1919L2364.69 1919C2374.8 1919 2383 1910.72 2383 1900.5 2383 1890.28 2374.8 1882 2364.69 1882Z" fill="#7F7F7F" fill-rule="evenodd" fill-opacity="1"/><path d="M2310 1981C2330.94 1981 2348.36 1964.89 2350 1944L2270 1944C2271.64 1964.89 2289.06 1981 2310 1981Z" fill="#7F7F7F" fill-rule="evenodd" fill-opacity="1"/><path d="M2469 1688.55 2469 1683.06C2467.41 1596.27 2396.87 1526.58 2310.01 1526 2223.15 1526.58 2152.59 1596.27 2151 1683.06L2151 1688.55C2151.59 1707.38 2155.34 1725.97 2162.07 1743.55 2168.52 1760.15 2177.88 1775.47 2189.71 1788.78 2204.26 1804.68 2220.22 1835.53 2226.95 1849.22 2229.01 1853.37 2233.25 1856 2237.9 1856L2382.1 1856C2386.75 1856 2390.99 1853.37 2393.05 1849.22 2399.78 1835.53 2415.74 1804.68 2430.29 1788.78 2442.12 1775.47 2451.48 1760.15 2457.93 1743.55 2464.66 1725.97 2468.4 1707.38 2469 1688.55ZM2432.31 1687.92C2431.76 1702.57 2428.8 1717.02 2423.55 1730.71 2418.7 1743.05 2411.7 1754.42 2402.88 1764.32 2388.86 1781.21 2376.86 1799.66 2367.1 1819.32L2252.88 1819.32C2243.13 1799.66 2231.12 1781.2 2217.1 1764.32 2208.28 1754.43 2201.28 1743.05 2196.44 1730.71 2191.19 1717.03 2188.24 1702.57 2187.69 1687.93L2187.69 1683.35C2188.93 1616.62 2243.21 1563.05 2310 1562.67 2376.79 1563.05 2431.08 1616.62 2432.3 1683.36Z" fill="#FFFF00" fill-rule="evenodd" fill-opacity="1"/><path d="M2311.5 1501C2318.4 1501 2324 1495.3 2324 1488.27L2324 1443.73C2324 1436.7 2318.4 1431 2311.5 1431 2304.6 1431 2299 1436.7 2299 1443.73L2299 1488.27C2299 1495.3 2304.6 1501 2311.5 1501Z" fill="#FFFF00" fill-rule="evenodd" fill-opacity="1"/><path d="M2160.11 1557.11C2165 1562.17 2173.06 1562.31 2178.11 1557.43 2183.17 1552.54 2183.31 1544.48 2178.43 1539.42 2178.32 1539.32 2178.22 1539.21 2178.11 1539.11L2146.58 1507.57C2141.52 1502.69 2133.46 1502.83 2128.57 1507.89 2123.81 1512.82 2123.81 1520.64 2128.57 1525.58Z" fill="#FFFF00" fill-rule="evenodd" fill-opacity="1"/><path d="M2453.8 1563C2457.2 1563 2460.46 1561.65 2462.86 1559.25L2494.58 1527.53C2499.39 1522.34 2499.09 1514.23 2493.9 1509.42 2488.98 1504.86 2481.37 1504.86 2476.45 1509.43L2444.75 1541.13C2439.75 1546.13 2439.75 1554.24 2444.76 1559.25 2447.16 1561.65 2450.42 1563 2453.82 1563Z" fill="#FFFF00" fill-rule="evenodd" fill-opacity="1"/><path d="M2113.27 1670 2068.73 1670C2061.7 1670 2056 1675.6 2056 1682.5 2056 1689.4 2061.7 1695 2068.73 1695L2113.27 1695C2120.3 1695 2126 1689.4 2126 1682.5 2126 1675.6 2120.3 1670 2113.27 1670Z" fill="#FFFF00" fill-rule="evenodd" fill-opacity="1"/><path d="M2160.32 1807.85 2129.08 1839.09C2123.95 1843.8 2123.61 1851.79 2128.33 1856.92 2133.05 1862.05 2141.03 1862.39 2146.17 1857.67 2146.42 1857.44 2146.67 1857.19 2146.9 1856.93L2178.15 1825.7C2183.16 1820.86 2183.3 1812.87 2178.46 1807.85 2173.61 1802.84 2165.62 1802.7 2160.61 1807.54 2160.5 1807.64 2160.4 1807.75 2160.3 1807.85Z" fill="#FFFF00" fill-rule="evenodd" fill-opacity="1"/><path d="M2463 1805.05C2458.22 1799.92 2450.19 1799.62 2445.05 1804.4 2439.92 1809.17 2439.62 1817.21 2444.4 1822.35 2444.61 1822.58 2444.83 1822.8 2445.06 1823.01L2476.48 1854.43C2481.53 1859.31 2489.56 1859.17 2494.44 1854.12 2499.19 1849.2 2499.19 1841.4 2494.44 1836.48Z" fill="#FFFF00" fill-rule="evenodd" fill-opacity="1"/><path d="M2551.27 1669 2506.73 1669C2499.7 1669 2494 1674.82 2494 1682 2494 1689.18 2499.7 1695 2506.73 1695L2551.27 1695C2558.3 1695 2564 1689.18 2564 1682 2564 1674.82 2558.3 1669 2551.27 1669Z" fill="#FFFF00" fill-rule="evenodd" fill-opacity="1"/><path d="M2789 1755C2789 1649.51 2870.71 1564 2971.5 1564 3072.29 1564 3154 1649.51 3154 1755 3154 1860.49 3072.29 1946 2971.5 1946 2870.71 1946 2789 1860.49 2789 1755Z" fill="#FFFFFF" fill-rule="evenodd" fill-opacity="1"/><g><g><g><path d="M2311 1724.5C2293.67 1724.5 2279.5 1710.33 2279.5 1693 2279.5 1675.68 2293.67 1661.5 2311 1661.5 2328.32 1661.5 2342.5 1675.68 2342.5 1693 2342.5 1710.33 2328.32 1724.5 2311 1724.5ZM2381.87 1673.31C2380.3 1667.54 2377.94 1662.03 2375.05 1657.04L2381.61 1637.35 2366.65 1622.39 2346.96 1628.95C2341.71 1626.06 2336.2 1623.7 2330.42 1622.13L2321.5 1603.75 2300.5 1603.75 2291.31 1622.13C2285.54 1623.7 2280.02 1626.06 2275.04 1628.95L2255.35 1622.39 2240.39 1637.35 2246.95 1657.04C2244.06 1662.29 2241.7 1667.8 2240.12 1673.58L2221.75 1682.5 2221.75 1703.5 2240.12 1712.69C2241.7 1718.46 2244.06 1723.98 2246.95 1728.96L2240.39 1748.65 2255.35 1763.61 2275.04 1757.05C2280.29 1759.94 2285.8 1762.3 2291.57 1763.88L2300.76 1782.25 2321.76 1782.25 2330.95 1763.88C2336.72 1762.3 2342.24 1759.94 2347.22 1757.05L2366.91 1763.61 2381.87 1748.65 2375.31 1728.96C2378.2 1723.71 2380.56 1718.2 2382.14 1712.43L2400.51 1703.24 2400.51 1682.24 2381.87 1673.31Z" fill="#F81254" fill-rule="nonzero" fill-opacity="1"/></g></g></g><g><g><g><path d="M2890 1837.5C2872.68 1837.5 2858.5 1823.32 2858.5 1806 2858.5 1788.67 2872.68 1774.5 2890 1774.5 2907.32 1774.5 2921.5 1788.67 2921.5 1806 2921.5 1823.32 2907.32 1837.5 2890 1837.5ZM2960.88 1786.31C2959.3 1780.54 2956.94 1775.02 2954.05 1770.04L2960.61 1750.35 2945.65 1735.39 2925.96 1741.95C2920.71 1739.06 2915.2 1736.7 2909.43 1735.12L2900.5 1716.75 2879.5 1716.75 2870.31 1735.12C2864.54 1736.7 2859.02 1739.06 2854.04 1741.95L2834.35 1735.39 2819.39 1750.35 2825.95 1770.04C2823.06 1775.29 2820.7 1780.8 2819.12 1786.57L2800.75 1795.5 2800.75 1816.5 2819.12 1825.69C2820.7 1831.46 2823.06 1836.97 2825.95 1841.96L2819.39 1861.65 2834.35 1876.61 2854.04 1870.05C2859.29 1872.94 2864.8 1875.3 2870.57 1876.87L2879.76 1895.25 2900.76 1895.25 2909.95 1876.87C2915.73 1875.3 2921.24 1872.94 2926.23 1870.05L2945.91 1876.61 2960.88 1861.65 2954.31 1841.96C2957.2 1836.71 2959.56 1831.2 2961.14 1825.42L2979.51 1816.24 2979.51 1795.24 2960.88 1786.31Z" fill="#4C091B" fill-rule="nonzero" fill-opacity="1"/></g></g></g><g><g><g><path d="M126 157.5C108.675 157.5 94.5 143.325 94.5 126 94.5 108.675 108.675 94.5 126 94.5 143.325 94.5 157.5 108.675 157.5 126 157.5 143.325 143.325 157.5 126 157.5ZM196.875 106.312C195.3 100.537 192.937 95.025 190.05 90.0375L196.612 70.35 181.65 55.3875 161.962 61.95C156.712 59.0625 151.2 56.7 145.425 55.125L136.5 36.75 115.5 36.75 106.312 55.125C100.537 56.7 95.025 59.0625 90.0375 61.95L70.35 55.3875 55.3875 70.35 61.95 90.0375C59.0625 95.2875 56.7 100.8 55.125 106.575L36.75 115.5 36.75 136.5 55.125 145.687C56.7 151.462 59.0625 156.975 61.95 161.962L55.3875 181.65 70.35 196.612 90.0375 190.05C95.2875 192.937 100.8 195.3 106.575 196.875L115.762 215.25 136.762 215.25 145.95 196.875C151.725 195.3 157.237 192.937 162.225 190.05L181.912 196.612 196.875 181.65 190.312 161.962C193.2 156.712 195.562 151.2 197.137 145.425L215.512 136.237 215.512 115.237 196.875 106.312Z" fill="#6F0D26" fill-rule="nonzero" fill-opacity="1" transform="matrix(1 0 0 1 2613 1585)"/></g></g></g><g><g><g><path d="M126 157.5C108.675 157.5 94.5 143.325 94.5 126 94.5 108.675 108.675 94.5 126 94.5 143.325 94.5 157.5 108.675 157.5 126 157.5 143.325 143.325 157.5 126 157.5ZM196.875 106.312C195.3 100.537 192.937 95.025 190.05 90.0375L196.612 70.35 181.65 55.3875 161.962 61.95C156.712 59.0625 151.2 56.7 145.425 55.125L136.5 36.75 115.5 36.75 106.312 55.125C100.537 56.7 95.025 59.0625 90.0375 61.95L70.35 55.3875 55.3875 70.35 61.95 90.0375C59.0625 95.2875 56.7 100.8 55.125 106.575L36.75 115.5 36.75 136.5 55.125 145.687C56.7 151.462 59.0625 156.975 61.95 161.962L55.3875 181.65 70.35 196.612 90.0375 190.05C95.2875 192.937 100.8 195.3 106.575 196.875L115.762 215.25 136.762 215.25 145.95 196.875C151.725 195.3 157.237 192.937 162.225 190.05L181.912 196.612 196.875 181.65 190.312 161.962C193.2 156.712 195.562 151.2 197.137 145.425L215.512 136.237 215.512 115.237 196.875 106.312Z" fill="#8E0D2F" fill-rule="nonzero" fill-opacity="1" transform="matrix(1 0 0 1.00397 2517 1434)"/></g></g></g><g><g><g><path d="M2489 1685.5C2471.68 1685.5 2457.5 1671.32 2457.5 1654 2457.5 1636.68 2471.68 1622.5 2489 1622.5 2506.32 1622.5 2520.5 1636.68 2520.5 1654 2520.5 1671.32 2506.32 1685.5 2489 1685.5ZM2559.88 1634.31C2558.3 1628.54 2555.94 1623.03 2553.05 1618.04L2559.61 1598.35 2544.65 1583.39 2524.96 1589.95C2519.71 1587.06 2514.2 1584.7 2508.43 1583.12L2499.5 1564.75 2478.5 1564.75 2469.31 1583.12C2463.54 1584.7 2458.02 1587.06 2453.04 1589.95L2433.35 1583.39 2418.39 1598.35 2424.95 1618.04C2422.06 1623.29 2419.7 1628.8 2418.12 1634.57L2399.75 1643.5 2399.75 1664.5 2418.12 1673.69C2419.7 1679.46 2422.06 1684.97 2424.95 1689.96L2418.39 1709.65 2433.35 1724.61 2453.04 1718.05C2458.29 1720.94 2463.8 1723.3 2469.57 1724.88L2478.76 1743.25 2499.76 1743.25 2508.95 1724.88C2514.73 1723.3 2520.24 1720.94 2525.23 1718.05L2544.91 1724.61 2559.88 1709.65 2553.31 1689.96C2556.2 1684.71 2558.56 1679.2 2560.14 1673.43L2578.51 1664.24 2578.51 1643.24 2559.88 1634.31Z" fill="#C01142" fill-rule="nonzero" fill-opacity="1"/></g></g></g><g><g><g><path d="M2986 1685.5C2968.68 1685.5 2954.5 1671.32 2954.5 1654 2954.5 1636.68 2968.68 1622.5 2986 1622.5 3003.32 1622.5 3017.5 1636.68 3017.5 1654 3017.5 1671.32 3003.32 1685.5 2986 1685.5ZM3056.88 1634.31C3055.3 1628.54 3052.94 1623.03 3050.05 1618.04L3056.61 1598.35 3041.65 1583.39 3021.96 1589.95C3016.71 1587.06 3011.2 1584.7 3005.43 1583.12L2996.5 1564.75 2975.5 1564.75 2966.31 1583.12C2960.54 1584.7 2955.02 1587.06 2950.04 1589.95L2930.35 1583.39 2915.39 1598.35 2921.95 1618.04C2919.06 1623.29 2916.7 1628.8 2915.12 1634.57L2896.75 1643.5 2896.75 1664.5 2915.12 1673.69C2916.7 1679.46 2919.06 1684.97 2921.95 1689.96L2915.39 1709.65 2930.35 1724.61 2950.04 1718.05C2955.29 1720.94 2960.8 1723.3 2966.57 1724.88L2975.76 1743.25 2996.76 1743.25 3005.95 1724.88C3011.73 1723.3 3017.24 1720.94 3022.23 1718.05L3041.91 1724.61 3056.88 1709.65 3050.31 1689.96C3053.2 1684.71 3055.56 1679.2 3057.14 1673.43L3075.51 1664.24 3075.51 1643.24 3056.88 1634.31Z" fill="#000000" fill-rule="nonzero" fill-opacity="1"/></g></g></g></g></g></svg>